<svg xmlns="http://www.w3.org/2000/svg" width="44" height="44" viewBox="0 0 44 44">
    <g fill="none" fill-rule="evenodd">
        <g>
            <g>
                <path d="M0 0H44V44H0z"/>
                <path fill="#00256C" fill-rule="nonzero" d="M29 27v-5.297C29 18.027 25.856 15 22 15c-3.776 0-6.869 2.902-6.996 6.474l-.004.229v1.275c.003 2.671.002 4.012 0 4.022 0 1.288-.324 1.955-.97 2h-2c.646-.045.97-.712.97-2v-5.297c0-4.136 3.014-7.608 7.012-8.488-.008-.07-.012-.142-.012-.215 0-1.105.895-2 2-2s2 .895 2 2c0 .073-.004.146-.012.217 3.916.86 6.887 4.208 7.008 8.23l.004.256c-.003 2.916-.003 4.681 0 5.297.182 1.33.515 1.996.998 2H32c.552 0 1 .448 1 1s-.448 1-1 1H12c-.552 0-1-.448-1-1s.448-1 1-1h17.998c-.665-.004-.998-.67-.998-2z"/>
                <path fill="#00256C" d="M19.591 29.833c.296 1.44.87 2.5 2.4 2.5 1.532 0 2.105-1.06 2.4-2.5h-4.8zM18 29.748V29h8v.748C26 32.093 24.206 34 22 34s-4-1.907-4-4.252z"/>
            </g>
        </g>
    </g>
</svg>
